<?xml version="1.0" encoding="UTF-8"?>
<svg width="18px" height="25px" viewBox="0 0 18 25" version="1.1" xmlns="http://www.w3.org/2000/svg" xmlns:xlink="http://www.w3.org/1999/xlink">
    <!-- Generator: Sketch 60.1 (88133) - https://sketch.com -->
    <title>非防治区</title>
    <desc>Created with Sketch.</desc>
    <g id="非防治区" stroke="none" stroke-width="1" fill="none" fill-rule="evenodd">
        <path d="M9,24.2608696 C11.209139,24.2608696 13,23.5308991 13,22.6304348 C13,21.7299705 11.209139,21 9,21 C6.790861,21 5,21.7299705 5,22.6304348 C5,23.5308991 6.790861,24.2608696 9,24.2608696 Z" id="Path备份" fill="#BBBBBB" fill-rule="nonzero" opacity="0.8"></path>
        <path d="M15.4545569,2.7005 L15.3582052,2.600125 C13.725505,1.001 11.517334,0 9.02274757,0 C6.52816114,0 4.31999017,1.001 2.68728994,2.600125 L2.59093819,2.7005 C1.00707378,4.35050001 -3.16191517e-13,6.59999999 -3.16191517e-13,9.09975 C-3.16191517e-13,11.5995 1.00839368,13.850375 2.59093819,15.499 L2.68728994,15.599375 L9.02274757,22 L15.3582052,15.60075 L15.4057211,15.55125 C17.0727094,13.8760995 18.009332,11.5634555 17.9979792,9.15062501 C18.0491274,6.72546779 17.1273759,4.38790376 15.4545569,2.7005" id="Path备份-2" fill-opacity="0.85" fill="#000000" fill-rule="nonzero"></path>
        <path d="M1,9 C1,11.8581247 2.52479133,14.4991408 5,15.9282032 C7.4752086,17.3572656 10.5247914,17.3572656 13,15.9282032 C15.4752087,14.4991408 17,11.8581247 17,9 C17,4.58172197 13.418278,1 9,1 C4.581722,1 1,4.58172197 1,9 Z" id="Path备份-3" fill="#FFFFFF" fill-rule="nonzero"></path>
        <rect id="Rectangle备份" fill="#D22E2E" fill-rule="nonzero" opacity="0" x="1" y="1" width="16" height="16"></rect>
        <path d="M9,1.5 C11.0710678,1.5 12.9460678,2.33946609 14.3033009,3.69669914 C15.6605339,5.05393219 16.5,6.92893219 16.5,9 C16.5,11.0710678 15.6605339,12.9460678 14.3033009,14.3033009 C12.9460678,15.6605339 11.0710678,16.5 9,16.5 C6.92893219,16.5 5.05393219,15.6605339 3.69669914,14.3033009 C2.33946609,12.9460678 1.5,11.0710678 1.5,9 C1.5,6.92893219 2.33946609,5.05393219 3.69669914,3.69669914 C5.05393219,2.33946609 6.92893219,1.5 9,1.5 Z" id="路径备份" stroke="#43A34A"></path>
        <circle id="椭圆形" stroke="#43A34A" fill-opacity="0.4" fill="#43A34A" cx="9" cy="9" r="3"></circle>
    </g>
</svg>